<svg xmlns="http://www.w3.org/2000/svg" xmlns:xlink="http://www.w3.org/1999/xlink" width="146" height="86.171" viewBox="0 0 146 86.171">
  <defs>
    <linearGradient id="linear-gradient" x1="0.167" y1="-0.3" x2="0.904" y2="1.472" gradientUnits="objectBoundingBox">
      <stop offset="0" stop-color="#0f204b"/>
      <stop offset="0.001" stop-color="#0f204b"/>
      <stop offset="1" stop-color="#0066a1"/>
    </linearGradient>
  </defs>
  <g id="Grupo_592" data-name="Grupo 592" transform="translate(-44 -278)">
    <path id="Trazado_91" data-name="Trazado 91" d="M143.643-118.831H28.349v20.344h146v-42.491C174.349-124.368,160.518-118.831,143.643-118.831Z" transform="translate(15.651 462.658)" fill="url(#linear-gradient)"/>
    <g id="Grupo_41" data-name="Grupo 41" transform="translate(44 278)">
      <path id="Trazado_92" data-name="Trazado 92" d="M143.643-138.754c16.875,0,30.706-5.537,30.706-22.148v-43.679h-146v65.827Z" transform="translate(-28.349 204.582)" fill="#fff"/>
      <path id="Trazado_93" data-name="Trazado 93" d="M143.643-138.754c16.875,0,30.706-5.537,30.706-22.148v-43.679h-146v65.827Z" transform="translate(-28.349 204.582)" fill="#fff"/>
    </g>
    <path id="Trazado_94" data-name="Trazado 94" d="M88.116-172.191v21.061H81.687v-8.282H75v8.282h-6.43v-21.061H75v8.371h6.692v-8.371ZM110.48-155.36v-16.831h-6.427v21.061h11.623l.968-4.23ZM99.3-172.191H92.87v21.061H99.3v-21.061Zm26.064,0h-6.428v21.061h6.428v-21.061Zm31.7,5.376c0-1.146,1.147-1.674,2.995-1.674a16.2,16.2,0,0,1,5.725,1.056l-.529-4.582a25.148,25.148,0,0,0-5.9-.617c-5.194,0-8.718,2.049-8.718,6.345,0,7.4,10.04,5.9,10.04,9.341,0,1.321-.968,2.027-3.347,2.027a19.259,19.259,0,0,1-7.31-1.675l.706,4.847a21.284,21.284,0,0,0,6.692,1.058c5.37,0,9.773-1.763,9.773-7.05,0-7.049-10.127-5.729-10.127-9.077Zm-8.363,2.2c0,5.376-3.788,8.459-9.774,8.459h-2.29v5.021h-6.429v-21.061a72.205,72.205,0,0,1,7.836-.44C144.649-172.631,148.7-170.516,148.7-164.61Zm-6.341.087c0-2.644-1.5-4.142-4.668-4.142-.33,0-.681,0-1.056.022v8.7h1.056C141.037-159.941,142.358-161.791,142.358-164.523Zm-76.346-.087c0,5.376-3.785,8.459-9.774,8.459h-2.29v5.021H47.521v-21.061a72.214,72.214,0,0,1,7.838-.44C61.963-172.631,66.012-170.516,66.012-164.61Zm-6.34.087c0-2.644-1.5-4.142-4.666-4.142-.33,0-.682,0-1.057.022v8.7h1.057C58.352-159.941,59.672-161.791,59.672-164.523Z" transform="translate(9.645 472.573)" fill="#0b5ed7"/>
  </g>
</svg>
