<svg xmlns="http://www.w3.org/2000/svg" width="20.861" height="20.861" viewBox="0 0 20.861 20.861">
  <path id="Instagram" d="M14.647,20.861H6.214A6.221,6.221,0,0,1,0,14.646V6.214A6.221,6.221,0,0,1,6.214,0h8.432a6.221,6.221,0,0,1,6.214,6.214v8.432A6.221,6.221,0,0,1,14.647,20.861ZM6.214,2.1A4.121,4.121,0,0,0,2.1,6.214v8.432a4.12,4.12,0,0,0,4.116,4.116h8.432a4.12,4.12,0,0,0,4.116-4.116V6.214A4.12,4.12,0,0,0,14.647,2.1ZM10.43,15.825a5.4,5.4,0,1,1,5.4-5.395A5.4,5.4,0,0,1,10.43,15.825Zm0-8.692a3.3,3.3,0,1,0,3.3,3.3A3.3,3.3,0,0,0,10.43,7.134Zm5.405-.765a1.293,1.293,0,1,1,1.293-1.293A1.294,1.294,0,0,1,15.836,6.368Z" fill="#0f204b"/>
</svg>
