<svg xmlns="http://www.w3.org/2000/svg" width="19.634" height="15.952" viewBox="0 0 19.634 15.952">
  <path id="Twitter" d="M19.634,1.888a8.08,8.08,0,0,1-2.314.635A4.04,4.04,0,0,0,19.091.3a8.05,8.05,0,0,1-2.558.977A4.03,4.03,0,0,0,9.564,4.027a4.073,4.073,0,0,0,.105.918A11.434,11.434,0,0,1,1.368.737,4.031,4.031,0,0,0,2.614,6.114,4,4,0,0,1,.79,5.61v.051A4.029,4.029,0,0,0,4.021,9.61a4.022,4.022,0,0,1-1.061.141A3.962,3.962,0,0,1,2.2,9.678a4.034,4.034,0,0,0,3.763,2.8,8.092,8.092,0,0,1-5,1.723A8.119,8.119,0,0,1,0,14.143a11.4,11.4,0,0,0,6.175,1.81A11.381,11.381,0,0,0,17.635,4.494c0-.175,0-.348-.012-.521a8.187,8.187,0,0,0,2.01-2.084Z" fill="#0f204b"/>
</svg>
