<svg xmlns="http://www.w3.org/2000/svg" width="22.088" height="17.179" viewBox="0 0 22.088 17.179">
  <path id="Youtube" d="M11.044,17.179h0c-.058,0-5.771-.042-7.5-.234-.093-.022-.206-.038-.338-.057a3.1,3.1,0,0,1-2.1-1A5.874,5.874,0,0,1,.229,13.47,39.107,39.107,0,0,1,0,9.527V7.692C0,5.727.226,3.729.229,3.709A5.341,5.341,0,0,1,1.1,1.288,3.009,3.009,0,0,1,3.247.279h0L3.313.273C6.362.042,11,0,11.044,0s4.683.042,7.731.273l.1.009a2.812,2.812,0,0,1,2.1,1.006,5.874,5.874,0,0,1,.876,2.421c0,.02.229,2.016.229,3.982V9.527c0,1.926-.226,3.923-.229,3.943a5.876,5.876,0,0,1-.876,2.421A3.009,3.009,0,0,1,18.841,16.9h0l-.062.006C15.725,17.176,11.09,17.179,11.044,17.179ZM8.378,4.646v8.473L15.614,8.98Z" fill="#fff"/>
</svg>
